<svg t="1595132980755" class="icon" viewBox="0 0 1024 1024" version="1.1" xmlns="http://www.w3.org/2000/svg" p-id="14331" width="200" height="200"><path d="M512 290.133333a273.066667 273.066667 0 0 1 273.066667 273.066667v273.066667H238.933333V563.2a273.066667 273.066667 0 0 1 273.066667-273.066667z" fill="#FF5C74" p-id="14332"></path><path d="M512 290.133333a270.848 270.848 0 0 0-42.666667 3.754667A273.066667 273.066667 0 0 1 699.733333 563.2v273.066667h85.333334V563.2a273.066667 273.066667 0 0 0-273.066667-273.066667z" fill="#F23D60" p-id="14333"></path><path d="M554.666667 293.888A270.848 270.848 0 0 0 512 290.133333a273.066667 273.066667 0 0 0-273.066667 273.066667v273.066667h85.333334V563.2a273.066667 273.066667 0 0 1 230.4-269.312z" fill="#FF889F" p-id="14334"></path><path d="M119.466667 836.266667m51.2 0l682.666666 0q51.2 0 51.2 51.2l0 0q0 51.2-51.2 51.2l-682.666666 0q-51.2 0-51.2-51.2l0 0q0-51.2 51.2-51.2Z" fill="#FFFFFF" p-id="14335"></path><path d="M853.333333 887.466667H170.666667a51.2 51.2 0 0 1-44.032-25.6A51.2 51.2 0 0 0 119.466667 887.466667a51.2 51.2 0 0 0 51.2 51.2h682.666666a51.2 51.2 0 0 0 51.2-51.2 51.2 51.2 0 0 0-7.168-25.6A51.2 51.2 0 0 1 853.333333 887.466667z" fill="#E1E8EF" p-id="14336"></path><path d="M853.333333 810.666667h-42.666666V563.2a298.666667 298.666667 0 0 0-597.333334 0v247.466667H170.666667a76.8 76.8 0 0 0 0 153.6h682.666666a76.8 76.8 0 0 0 0-153.6zM264.533333 563.2a247.466667 247.466667 0 0 1 494.933334 0v247.466667h-494.933334zM853.333333 913.066667H170.666667a25.6 25.6 0 0 1 0-51.2h682.666666a25.6 25.6 0 0 1 0 51.2zM512 213.333333a17.066667 17.066667 0 0 0 17.066667-17.066666v-136.533334a17.066667 17.066667 0 0 0-34.133334 0v136.533334a17.066667 17.066667 0 0 0 17.066667 17.066666zM686.933333 260.266667a17.066667 17.066667 0 0 0 23.381334-6.314667l68.266666-118.272a17.066667 17.066667 0 0 0-29.525333-17.066667l-68.266667 118.272a17.066667 17.066667 0 0 0 6.144 23.381334zM962.730667 302.933333a17.066667 17.066667 0 0 0-24.064-6.314666l-118.272 68.266666a17.066667 17.066667 0 0 0 17.066666 29.525334l118.272-68.266667a17.066667 17.066667 0 0 0 6.997334-23.210667zM313.685333 253.952a17.066667 17.066667 0 0 0 29.525334-17.066667L275.114667 119.466667a17.066667 17.066667 0 0 0-29.525334 17.066666zM194.218667 396.8a17.066667 17.066667 0 0 0 8.533333-31.914667l-117.418667-68.266666a17.066667 17.066667 0 0 0-17.066666 29.525333l118.272 68.266667a17.066667 17.066667 0 0 0 7.68 2.389333z" fill="#3E4454" p-id="14337"></path></svg>
